# xmcd CD database file
#
# Track frame offsets:
#	150
#	14558
#	35011
#	48202
#	66049
#	82067
#	102759
#	122703
#	134023
#	146083
#	166926
#	191099
#	204117
#	224634
#	236205
#
# Disc length: 3479 seconds
#
# Revision: 6
# Processed by: cddbd v1.5.2PL0 Copyright (c) Steve Scherf et al.
# Submitted via: CDex 1.79
#
DISCID=e30d950f
DTITLE=Willie Nelson and Friends - Live And Kickin'
DYEAR=2003
DGENRE=Country
TTITLE0=Willie Nelson - I Didn't Come Here (And I Ain't Leavin' ) (live)
TTITLE1=Willie Nelson and Eric Clapton - Night Life  (live)
TTITLE2=Willie Nelson and Shania Twain - Blue Eyes Crying In The Rain (live)
TTITLE3=Willie Nelson and Paul Simon - Homeward Bound (live)
TTITLE4=Willie Nelson and Toby Keith - Beer For My Horses (live)
TTITLE5=Willie Nelson and Diana Krall and Elvis Costello - Crazy (live)
TTITLE6=Willie Nelson and Wyclef Jean - To All The Girls I've Loved Before (live)
TTITLE7=Willie Nelson and Norah Jones - Wurlitzer Prize (I Don't Want To Get Over You) (live)
TTITLE8=Willie Nelson and ZZ Top - She Loves My Automobile (live)
TTITLE9=Willie Nelson and Shelby Lynne - Angel Flying Too Close To The Ground (live)
TTITLE10=Willie Nelson and Leon Russell and Ray Charles - A Song For You (live)
TTITLE11=Willie Nelson and John Mellencamp - I Couldn't Believe It Was True (live)
TTITLE12=Willie Nelson and Kenny Chesney - Last Thing I Needed First Thing This Morning (live)
TTITLE13=Willie Nelson and Ray Price - Run That By Me One More Time (live)
TTITLE14=Willie Nelson and Steven Tyler - One Time Too Many (live)
EXTD=YEAR: 2003
EXTT0=
EXTT1=
EXTT2=
EXTT3=
EXTT4=
EXTT5=
EXTT6=
EXTT7=
EXTT8=
EXTT9=
EXTT10=
EXTT11=
EXTT12=
EXTT13=
EXTT14=
PLAYORDER=
